<svg xmlns="http://www.w3.org/2000/svg" viewBox="0 0 1024 1024">
  <path fill="#edefef" d="M486 267c15-5 31-5 47-3l14 4-11 11c-13-3-27-4-40-1l-1 3c-2-5-6-9-9-14Zm-46 5c8-2 17-3 25 1s14 13 17 22c-6-3-11-7-18-8-10-3-22-1-31 6-6 4-12 10-15 17l-3 8-2-2c-2-18 9-38 27-44Zm109 19c6-10 16-16 27-18 8 0 16 3 23 6 6 2 13 6 17 11-4 2-7 4-9 7-13-8-29-14-45-11l-13 5Zm226 3c10-9 24-12 37-16-7 10-17 18-26 27l-11-11Zm-421 13c12-12 28-19 44-23h5l-2 4-4 11c-7 0-13 3-19 6-9 5-17 11-22 21-4-2-7-5-8-8 0-4 3-8 6-11Zm284-13c7 5 15 9 20 16 3 7 6 15 6 23v12l-3-13c-3-9-10-16-18-22l-5-8v-8Zm121 15 11 13-18 16-46 44-55 54-28 27-14 12-3 6-11-12 11-11 71-69 74-72 8-8Zm-456 38c5-8 13-15 21-20 4 1 9 3 12 6 4 2 7 6 10 9-6-1-11-2-17 0-7 3-14 8-18 14-1 1-2 2-4 1l-6-1c0-3 0-7 2-9Zm144-14c9-5 21-5 31-1 8 2 15 9 19 16l5 11c-7-9-18-16-30-18-17-3-36 8-42 25l-3 2c-2 4-2 8-5 10v-10c2-15 11-29 25-35Zm-162 36c1-2 2 0 3 0 2 3 6 4 9 6l-11 13a70 70 0 0 0-15 31c-2 6-1 12-1 18-3-7-4-14-5-20l1-10c3-14 10-27 19-38Zm293 27c-3-8 3-16 11-16h5l-7 2c-3 3-6 6-7 10l-2 4Zm-184 18c4-8 12-15 21-17 4 0 9 1 12 5l3 3-1 1c-6 1-11 1-16 4-11 5-17 15-22 25l-1 10c-3-10-1-21 4-31Zm84 39c14-11 35-14 51-8 8 4 15 9 21 15l-18-8c-12-2-25-2-36 3-15 6-27 19-31 35l-3 3c-1-15 5-30 16-40Zm-90 28c12-16 32-25 52-25l-8 10-6 3c-9 2-16 7-23 13l-11 11-4-10v-2Zm171 16c5-6 14-6 20-12l8 8-4 4-8 8-12 4c-4 3-6 8-9 12l-5 10-1-1c3-11 2-24 11-33Zm-182-2 7 7 1 1-6 9c-6 11-9 24-8 36l-2-3c-2-5-4-11-4-16 0-12 5-25 12-34Zm-123 79c3-2 3-6 4-9 2 4 3 8 6 10 3 4 8 6 12 7-4 1-8 3-11 6-4 3-5 7-6 11-2-4-3-8-6-11s-8-4-12-6c5-1 10-3 13-8Zm492 17 4-9 4 8c3 5 8 7 13 9-4 1-9 3-12 6s-4 7-5 11c-2-9-9-16-18-17 5-2 10-4 14-8Zm-478 40c24-17 54-23 83-20 9 1 18 5 24 12 4 4 6 11 2 17s-11 10-13 18c-3 7 0 16 4 22 7 10 18 16 30 20l18 3 12 1c5-1 9-4 12-7 4-3 5-9 3-14-3-8-10-14-18-18-10-5-23-4-33 1-1-6 2-11 7-15 6-4 14-5 21-4 16 3 28 13 38 24 7 7 12 16 16 25l-1 1c-3 4-4 10-8 14l-16 14-7-5c-10-3-22-2-30 6-3 4-4 10-3 15l-25 7a20 20 0 0 0-14-12c-9-2-20 0-27 6l-2 3c-9-1-17-4-25-6l-1-2c-1-11-14-15-23-11-7-1-12-6-18-8h-9l-2-2c7 1 16 0 20-7 3-6-2-13-7-16-8-3-20-1-23 8-9-7-15-18-15-29 4-17 16-31 30-41m37-4c-4 1-9 3-11 8-2 4 0 10 3 13 5 4 13 4 19 2 4-2 8-6 7-11 0-9-10-13-18-12m-37 29c-5 1-10 6-9 12 0 7 7 10 13 11 6 0 12-2 16-7 2-4 0-9-2-12-4-5-12-6-18-4Zm414-3 7-7 8 8-7 8-8-9Z"/>
  <g fill="#02182e">
    <path d="M489 191a319 319 0 0 1 251 101c9-12 21-23 34-30 22-12 48-13 70-24a115 115 0 0 1-47 138 354 354 0 0 1 24 103 315 315 0 0 1-158 287 315 315 0 0 1-194 35c-3 0-7-2-10 0-24 15-52 22-80 23h-20c-41-2-81-17-112-44-14-13-27-28-34-46a99 99 0 0 1 13-99 292 292 0 0 1-28-188c7-41 22-81 45-115a318 318 0 0 1 246-141m-3 76c3 5 7 9 9 14l3 8 3 14-1 19c0 4 4 5 6 8 8 10 11 23 19 32 6 9 16 13 26 16 4 1 8 1 11 3 3-3 3-7 6-10s7-7 12-6c7 0 15 0 22-2 6-1 10-5 13-9 4-4 6-10 6-15 1-4 2-8 5-10 4-1 9 0 10 4 3 9-1 18-4 26-4 5-8 10-14 13-8 6-19 7-29 8-8 0-14 8-11 16v1c0 5 2 10 3 14a82 82 0 0 0-41-19c-10-3-19-9-26-16-5-5-8-11-12-17l-5-11c-4-7-11-14-19-16-10-4-22-4-31 1-14 6-23 20-25 35-2 7-1 15 2 21 2 4 4 8 3 13-3-4-8-5-12-5-9 2-17 9-21 17-5 10-7 21-4 31l2 7v3c3 0 6-3 8-4 8-5 16-8 24-10 10-1 20-1 30 1 8 1 17-1 22-8 5-5 5-12 6-18-1-7-3-14-6-20l-4-4c-4-2-6-6-6-10 2-2 3-5 6-6 3 0 7 0 9 2 4 3 7 6 9 11 5 8 8 18 8 28 0 3-2 6 0 10l14-1c10 0 20 1 28 6 6 3 12 6 18 11l11 12c6-5 11-12 18-17 7-8 16-14 22-22l15-14c7-5 12-13 19-19 9-8 18-17 26-27l17-16v-2l-17-20c-3-3-6-7-11-8-5-7-13-11-20-16v8c-4 4-8 8-13 10-3-7-5-15-9-22-4-5-11-9-17-11-7-3-15-6-23-6-11 2-21 8-27 18l-5 6c-2 1-4-1-5-2-3-3-5-7-9-9l6-7 11-11-14-4c-16-2-32-2-47 3m-46 5c-18 6-29 26-27 44l-2-2-15-1 1-14 4-11 2-4h-5c-16 4-32 11-44 23-3 3-6 7-6 11 1 3 4 6 8 8h1c1 3 5 4 6 6 1 3 3 4 5 6h-3l1 2c-2 0-2 3-2 5 0 3 1 6 4 8v17c-2 8-5 15-11 21l-12 8v1-2c-5 1-10-4-9-9 0-4 5-5 7-8 5-2 6-9 8-14 1-8-1-17-5-25-3-3-6-7-10-9-3-3-8-5-12-6-8 5-16 12-21 20-2 2-2 6-2 9l6 1c2 1 4 1 5 3 2 2 2 5 1 8l-7 8c-3 0-6-2-9-1-3-2-7-3-9-6-1 0-2-2-3 0-9 11-16 24-19 38l-1 10-1-1c-2 6-4 13-3 19 4 6 10 12 16 17 4 3 9 7 15 8 8 3 17 4 24 0 10-4 13-19 4-26-5-3-10-2-16-2l1-10c1-2 3-4 6-5h10c8 3 16 9 18 18 2 5 2 11 2 17-2 10-10 19-19 24-10 4-22 4-32 1-11-3-18-11-27-18-1 8-1 17 1 24 5 20 17 38 34 48 13 9 29 12 44 10h3a176 176 0 0 1 2-9c-2-5 1-11 1-16-7 0-15 1-20-5-2-3-2-7 1-10 3-2 7-1 10-1 10 2 20-5 26-13 6-7 11-15 12-24l-5-22c-1-12 1-24 7-34 5-11 14-19 25-24 0-10 1-20 4-30 1-4 4-7 4-11 6-8 12-15 20-21l19-8h15l18 3c1-5-1-11-1-16l-1-4v-1c-3-9-9-18-17-22s-17-3-25-1m372 6c-13 4-27 7-37 16l11 11 10 11 11 11c10-13 15-28 15-43l1-11-11 5m-53 31-8 8-74 72-71 69-11 11 11 12 7 7 13 12 10-11 31-28 80-76 44-42-12-13-9-8-11-13m-14 124-18 18-3 4-8 7c-4 3-7 8-12 11l-22 17c-2 2-6 3-6 7 2 4 3 9 7 12 3 1 5 3 8 3 6 1 13 2 16-4 4-2 5-6 6-10 1-5-3-9-1-14l10-4c5 0 9-3 13-6 6-5 12-11 15-19 2-8 0-15-2-23l-3 1m-267 20a47 47 0 0 0-16 40v7h-15c-2-8-2-16-1-24 1-6 4-12 8-17l-14-3c-20 0-40 9-52 25v2l4 10v1c-2 3-4 6-8 8l-7-7c-7 9-12 22-12 34 0 7-1 16 3 22 2 9 7 16 13 23 19 22 56 28 79 9 6-4 9-10 13-15 2-1 5 1 7 1l11 1c4 0 8-3 11-5 9-6 13-16 16-26 1-9 4-17 3-26l5-16c6-12 15-22 27-28 1-1 4-1 2-3l-5-6c-6-6-13-11-21-15-16-6-37-3-51 8m267 34c-5 4-11 7-17 9 0 4 0 9-2 12-3 9-10 16-19 19-5 2-10 1-16 2l-7-3-12-6c-5-3-8-8-12-12l-3 3-26 23c-1 2 3 1 5 1 5 0 11 1 16 5 6 5 12 11 20 13h-1l17 3 14-1c14-3 27-10 36-21l11-20 4-22c0-4 1-9-1-13l-7 8m-186 10c-9 9-8 22-11 33-1 5-4 10-7 15-2 2-4 3-5 6 6-3 12-9 16-14l12-18 20-17 6-6-3-3-8-8c-6 6-15 6-20 12m17 26-11 15c-6 6-13 11-20 15l19-2h1l10-2c10-2 20-6 26-15 4-6 6-12 7-18 1-3-2-5-4-7l-4-5c-7 8-18 11-24 19m-339 11c-2 2-3 5-2 8 2 5 12 4 11-2 1-5-5-8-9-6m535 10c0 2 2 3 3 4 1-1 3 0 4-2s1-5-1-6c-3-2-7 1-6 4m-518 30c-3 5-8 7-13 8 4 2 9 3 12 6s4 7 6 11c1-4 2-8 6-11 3-3 7-5 11-6-4-1-9-3-12-7-3-2-4-6-6-10-1 3-1 7-4 9m360-5c3 4 7 6 11 9l9 7c-3 1-7 2-11 1l-26-1c-4 0-9-2-13-1 1 3 4 6 7 8 8 6 16 11 25 15l11 5 18 4h-7l-13 1c-3-2-5-1-8-2-20-4-40-10-57-22l-10-5 3 6 7 10v-1c6 6 11 12 19 16a79 79 0 0 0 102-28l6-15 1-4-12 4c-13 2-26 0-38-6-8-1-16-2-24-1m132 22c-4 4-9 6-14 8 9 1 16 8 18 17 1-4 2-8 5-11s8-5 12-6c-5-2-10-4-13-9l-4-8-4 9m-269 15 4 6 22 24 3 4 8 10 8 9c6 9 13 16 18 25 12 16 22 34 32 51 1 5 5 8 6 12 3-3 7-4 10-6l-1-3 3 1c2-2 5-4 6-7 1-2-1-4-2-6l-19-39-5-10c-3-5-4-11-8-15 0-6-4-10-6-15-1-5-5-10-7-15-1-3-4-5-6-7l-4-2c-3-4-8-6-12-8-6-3-12-4-19-6-8-1-17-4-26-4l-5 1m-209 25a75 75 0 0 0-33 69v1c0 7 2 14 4 21 9 23 28 41 49 53a172 172 0 0 0 124 17c17-4 33-11 46-23 11-10 18-24 19-38 1-12 1-24-4-34l1-1c-4-9-9-18-16-25a71 71 0 0 0-38-24c-7-1-15 0-21 4-5 4-8 9-7 15 1 3 3 7 7 7l-1 2c8 0 17 0 23 5 5 4 7 10 7 16-4 4-8 6-12 7l-18-3c-12-4-23-10-30-20-4-6-7-15-4-22 2-8 9-12 13-18s2-13-2-17c-6-7-15-11-24-12-29-3-59 3-83 20m414 22 8 9 7-8-8-8-7 7m-39 43c-5 4-4 14 3 14 4 1 7-1 10-4l-1-6-5-6c-2 1-5 0-7 2Z"/>
    <path d="M569 315c4-1 9 0 13 1 8 2 11 13 5 18-4 3-7-1-11-2-8-4-18-1-25 5-1-3-3-8 0-11 4-6 11-9 18-11ZM432 525c11-1 23 0 34 1 8 1 16-1 24 1 4 1 6 7 6 12-7 5-16 5-24 4-12-2-24-5-36-3-6 1-12 4-17 8l-5 4c-2-1-5 0-6-2v-9c5-8 14-14 24-16ZM305 627c8-1 18 3 18 12 1 5-3 9-7 11-6 2-14 2-19-2-3-3-5-9-3-13 2-5 7-7 11-8Zm-37 29c6-2 14-1 18 4 2 3 4 8 2 12-4 5-10 7-16 7-6-1-13-4-13-11-1-6 4-11 9-12Zm-15 45c3-9 15-11 23-8 5 3 10 10 7 16-4 7-13 8-20 7-6-2-12-8-10-15Z"/>
  </g>
  <g fill="#d4d7ea">
    <path d="m812 278 11-5-1 11-6 9c-5 9-12 16-20 23l-10-11c9-9 19-17 26-27Zm-60 60 18-16 9 8-37 35-80 76-39 37-10 10-7-7 3-6 14-12 28-27 55-54 46-44Zm-201-1c7-6 17-9 25-5 4 1 7 5 11 2l-1 1c-5 2-11-2-16 0-4 1-7 3-10 6-4 5-6 11-7 17l-6-2-3 2 1-2 1-5v-4l5-10Zm-186 6h2c1 3 2 7 1 10l-3-10Zm4 12 4 13c0 4-2 9 1 13-3 6-7 12-12 17-6 5-14 8-21 8l4-6v-1l12-8c6-6 9-13 11-21 2-5 1-10 1-15Zm263 4h1l-2 5 2-3 4 7c-6 7-13 13-21 16-10 4-20 4-29 7l-9 6v-1l2-4c1-4 4-7 7-10l7-2h-5c10-1 21-2 29-8 6-3 10-8 14-13Zm-114 37c7-3 14-5 22-4 15 3 30 9 41 19l1 4-22-6c-13-6-28-9-42-13Zm57 109 8-8h2l-2 4 1 1-20 17-12 18c-4 5-10 11-16 14 1-3 3-4 5-6 3-5 6-10 7-15l1 1 5-10c3-4 5-9 9-12l12-4Zm1 18c6-8 17-11 24-19l4 5c-2 6-4 13-8 18-6 9-16 15-26 21l-6 3-19 2c7-4 14-9 20-15l11-15ZM392 666c10-5 23-6 33-1 8 4 15 10 18 18 2 5 1 11-3 14-3 3-7 6-12 7l-12-1c4-1 8-3 12-7 3-3 4-8 2-12-4-7-12-11-20-11h-11c-4 0-6-4-7-7Z"/>
    <path d="M235 700c-1-9-1-19 3-28 0 11 6 22 15 29-2 7 4 13 10 15l2 2h9c6 2 11 7 18 8h-3l-3 1-3 4c-2 5-1 12 4 15 6 4 15 5 22 1 4-2 6-6 6-10l1 2c8 2 16 5 25 6-3 6-3 14 2 19 7 9 21 10 31 5 5-1 9-5 11-10 1-4 0-7-1-11l25-7c3 6 9 10 16 11 8 2 16 0 22-4 3-3 6-7 7-11 0-5-2-9-5-12l16-14c4-4 5-10 8-14 5 10 5 22 4 34v-8c-3 14-11 26-22 35-15 12-34 20-54 23-38 7-79 1-112-19-20-12-38-28-48-50-2-4-3-8-6-11v-1Z"/>
  </g>
  <path fill="#bb56db" d="M496 278c13-3 27-2 40 1l-6 7c4 2 6 6 9 9 1 1 3 3 5 2l5-6 13-5c16-3 32 3 45 11 2-3 5-5 9-7 4 7 6 15 9 22 5-2 9-6 13-10l5 8c-1 2 1 4 3 5 2 10 5 21 2 32-2 8-5 15-11 21l-4-7-2 3 2-5h-1c3-8 7-17 4-26-1-4-6-5-10-4l2-3h-4l1-4 3-1 1-2 3-1-7 2-5-7c-2-5-7-9-10-13l-9-4v3c-2 0-4 0-5 2l4 3h-3l3 1c-1 3-2 6-5 8l-1 7h-3v-3c-3-1-6-3-10-3-6-3-13-3-19-2-9 2-16 9-18 18-1 5-1 12 2 17v4h-3l-5 2 2 5-1 2 2 2h-3l3 3h-2c-7-4-11-11-15-17-4-7-6-14-6-22l-4 13c-6-15-5-31-3-47-2 6-6 10-10 15v-4l-3-14-3-8 1-3m20 34-1 6h4c0-2 0-6-3-6Zm-83-19c9-7 21-9 31-6 7 1 12 5 18 8v1c1 4 2 9 1 13-5-1-10-3-16-3-7-1-13 0-19 1s-11 4-16 8c-9 5-14 13-20 21l-2-3-4-10c1 17-2 34-10 50l-2-3-6 1-1-6-6-4-2-4-1 12c0 4-2 8-4 12-3-4-1-9-1-13l-4-13c0 5 1 10-1 15v-17c1-3 0-7-1-10h4c-3-7-7-14-14-17h-1c5-10 13-16 22-21 6-3 12-6 19-6l-1 14 15 1a223 223 0 0 1 4 4l3-8c3-7 9-13 15-17Zm-104 49c6-2 11-1 17 0 4 8 6 17 5 25-2 5-3 12-8 14l-6-2c-4 2-8 4-12 2l-2-7-3-1-1-3-11 7c-4 3-9-3-12 1l-7 9c-5 6-10 12-13 19l-3 7c2-9 7-18 13-25l11-13c3-1 6 1 9 1l7-8c1-3 1-6-1-8-1-2-3-2-5-3 2 1 3 0 4-1 4-6 11-11 18-14Zm101 24c6-17 25-28 42-25 12 2 23 9 30 18 4 6 7 12 12 17l-8-3v2c-3-4-6-8-10-10 2 3 3 7 3 10 0 2 2 3 3 5s-1 3-1 4l-7-7-3 4c-6-9-17-16-29-15l-11 4c-2 3-2 6-2 9l-1 4c-3 3-3 8-4 12l-5-1-3-6v4l-1 1c-3-4-5-9-6-14l-2-11 3-2Z"/>
  <path fill="#817cca" d="m816 293 6-9c0 15-5 30-15 43l-11-11c8-7 15-14 20-23Zm-37 37 12 13-44 42-80 76-31 28-10 11-13-12 10-10 39-37 80-76 37-35ZM596 527c4-5 6-12 8-18 2 2 5 4 4 7-1 6-3 12-7 18-6 9-16 13-26 15l-10 2h-1l6-3c10-6 20-12 26-21ZM399 673h11c8 0 16 4 20 11 2 4 1 9-2 12 0-6-2-12-7-16-6-5-15-5-23-5l1-2Zm-160 49c2-3 1-6 2-10 10 22 28 38 48 50 33 20 74 26 112 19 20-3 39-11 54-23 11-9 19-21 22-35v8c-1 14-8 28-19 38-13 12-29 19-46 23a168 168 0 0 1-124-17c-21-12-40-30-49-53Z"/>
  <g fill="#4f14a7">
    <path d="M501 307c4-5 8-9 10-15-2 16-3 32 3 47l4-13c0 8 2 15 6 22 4 6 8 13 15 17 4 3 9 6 14 5v-12c1-6 3-12 7-17 1 6 3 11 9 13 11 5 24 9 36 4 8-3 13-12 16-19 0 5-2 11-6 15-3 4-7 8-13 9-7 2-15 2-22 2-5-1-9 3-12 6s-3 7-6 10c-3-2-7-2-11-3-10-3-20-7-26-16-8-9-11-22-19-32-2-3-6-4-6-8l1-19v4Zm-19-11 1 4c0 5 2 11 1 16l-18-3h-15c4-1 9-2 13-1l-3-1 3-2h-8l9-1c-6-3-12 1-17-1 6-1 12-2 19-1 6 0 11 2 16 3 1-4 0-9-1-13Z"/>
    <path d="M658 310c5 1 8 5 11 8l17 20v2l-17 16c-8 10-17 19-26 27-7 6-12 14-19 19l-15 14c-6 8-15 14-22 22-7 5-12 12-18 17l-11-12c-6-5-12-8-18-11-8-5-18-6-28-6l-14 1c-2-4 0-7 0-10 0-10-3-20-8-28-2-5-5-8-9-11-2-2-6-2-9-2-3 1-4 4-6 6l-17-3c0-3 0-6 2-9l11-4c12-1 23 6 29 15 6 7 9 16 13 24 2 4 6 5 10 6l27 7c12 6 22 13 31 23l16-15 18-19c6-5 12-8 16-14l17-15c7-7 15-14 19-24 3-6 2-14 2-21l1-1 3 13v-12c0-8-3-16-6-23Z"/>
    <path d="M562 312c6-1 13-1 19 2l1 2a28 28 0 0 0-31 10c-3 3-1 8 0 11l-5 10c-3-5-3-12-2-17 2-9 9-16 18-18Zm-156 11 4 10c-1 3-4 9 0 12l2-3c0 4-3 7-4 11-3 10-4 20-4 30-11 5-20 13-25 24-6 10-8 22-7 34l5 22c-1 9-6 17-12 24-6 8-16 15-26 13-3 0-7-1-10 1-3 3-3 7-1 10 5 6 13 5 20 5 0 5-3 11-1 16l-1 1-1 8h-3l-6-1-1-2c-10-1-20-5-29-9-6-3-8-11-7-17 3-9 10-16 18-21s18-7 27-11c13-9 20-24 25-38v-12h-2l2-2-1-5c2-6 3-13 6-19 6-11 16-20 22-31 8-16 11-33 10-50Zm18 66c-3-6-4-14-2-21v10c3-2 3-6 5-10l2 11c1 5 3 10 6 14l10 13c-5-1-10-2-15-1l-3-3c1-5-1-9-3-13Zm48 3 4 4c3 6 5 13 6 20-1 6-1 13-6 18-5 7-14 9-22 8-10-2-20-2-30-1-8 2-16 5-24 10-2 1-5 4-8 4v-3l5-8 10-12c7-5 14-9 22-10 9-2 17-1 26-2 7 0 15-4 17-11 3-5 1-11 0-17Z"/>
    <path d="M303 414c5-3 11-4 17-4 9 2 18 7 24 15 4 8 7 17 6 26-3-1-6 0-9 1 0-6 0-12-2-17-2-9-10-15-18-18h-10c-3 1-5 3-6 5l-1 10-5-7c-2-4 0-9 4-11Z"/>
    <path d="m264 416 1 1c1 6 2 13 5 20 0-6-1-12 1-18 2 7 6 13 10 19l9 9c2 2 4 0 5-1 3 1 7 3 10 1 6-3 9-9 15-13 9 7 6 22-4 26-7 4-16 3-24 0-6-1-11-5-15-8-6-5-12-11-16-17-1-6 1-13 3-19Zm481 17 3-1c2 8 4 15 2 23-3 8-9 14-15 19-4 3-8 6-13 6l-10 4c-2 5 2 9 1 14-1 4-2 8-6 10-5 1-10 3-15 0l-7-8 2-4c4-6 9-10 14-14 9-6 15-15 22-23l1-4 3-4 18-18Zm-249 38c12 5 20 16 23 29l2 13c1 9-2 17-3 26-3 10-7 20-16 26-3 2-7 5-11 5l-11-1c-2 0-5-2-7-1-4 5-7 11-13 15l1-3h-6l4-4-5 2c-2-2-5-2-7-2-6 0-13-2-18-6l8-5c3-5 1-11 4-15 2-4 6-6 9-8-7-4-15 0-22 2-3 1-5 4-7 6-4 3-9 6-15 5-10-9-9-26-2-36l8-2c2-3 2-8 3-11 5 4 5 10 8 15h8c12-3 25 1 38 1 7 0 13-3 19-6 6-5 9-12 10-19 2-9-3-17-2-26m-64 54c-10 2-19 8-24 16v-2c-3 3-3 7-3 11 0 3 4 5 7 4s5-4 7-6c5-4 11-7 17-8 12-2 24 1 36 3 8 1 17 1 24-4 0-5-2-11-6-12-8-2-16 0-24-1-11-1-23-2-34-1Z"/>
    <path d="m745 487 7-8c2 4 1 9 1 13l-4 22-2-2c-3 5-5 11-9 15-4 6-10 9-15 13-4 4-9 4-14 6-6 2-11 1-17 1-6 1-11-1-17-3-11-4-20-14-32-15-3-1-6 1-8 3l1 3c-2 0-6 1-5-1l26-23c7 2 10 10 17 13 5 3 11 6 17 5s11 0 16-2c9-3 16-10 19-19 2-3 2-8 2-12 6-2 12-5 17-9Zm-320 8c2-1 6-2 6 2 0 2-2 3-4 3s-2-3-2-5Zm-21 14c1-3 3-1 4 1-2 2-4 2-4-1Zm-39 20c0 5 2 11 4 16l-1 6c-4-6-3-15-3-22Zm307 24c6-1 11 1 16 3l-17-3h1Zm-58 16c8-1 16 0 24 1 12 6 25 8 38 6l12-4-1 4-6 15-3-1a61 61 0 0 1-46 12c-8-1-16-5-24-7-6-2-11-4-17-3-3-2-6-5-7-8 4-1 9 1 13 1l26 1c4 1 8 0 11-1l-9-7c-4-3-8-5-11-9Zm-64 19 10 5c17 12 37 18 57 22 3 1 5 0 8 2-11 2-23 0-33-2l-17-7c-6-2-10-8-16-9l1 4v1l-7-10-3-6Zm-47 26 15 6 10 11 16 20c3-1 5-2 6-5 3 1 4 5 5 7l6 7 1 2c4 4 5 10 8 15l5 10c0 7 3 14 5 20 1 7 6 13 4 20-4-4-6-9-9-13l-6-11c-5-9-12-18-16-28l-15-23c-3-5-8-10-13-15l-9-10-13-13Zm3 26c4 1 5 5 8 8 4 3 6 7 8 11l-8-9-8-10Zm-64 80 7 5c3 3 5 7 5 12-1 4-4 8-7 11-6 4-14 6-22 4-7-1-13-5-16-11-1-5 0-11 3-15l1 1 1 6c6 4 14 4 21 3 5 0 10-3 13-7 2-3-3-5-5-6l-1-3Zm-150 6c9-4 22 0 23 11 0 4-2 8-6 10-7 4-16 3-22-1-5-3-6-10-4-15l4 4 13 1 11-3-1-1v-1c-3-3-6-6-10-6l-11 1h3Zm79 11c6 1 11 5 13 11 1 4 2 7 1 11-2 5-6 9-11 10-10 5-24 4-31-5a17 17 0 0 1 0-22h1c0 2-3 6-1 9l11 5 17-1c3-1 8-2 9-6l-3 2v-5l3 1-3-6c-2-1-5-2-6-4Z"/>
  </g>
  <path fill="#a63ed5" d="m601 296 9 4c3 4 8 8 10 13l5 7 7-2-3 1-1 2-3 1-1 4h4l-2 3c-3 2-4 6-5 10-3 7-8 16-16 19-12 5-25 1-36-4-6-2-8-7-9-13 3-3 6-5 10-6 5-2 11 2 16 0l1-1c6-5 3-16-5-18l-1-2c4 0 7 2 10 3v3h3l1-7c3-2 4-5 5-8l-3-1h3l-4-3c1-2 3-2 5-2v-3Zm45 19c-2-1-4-3-3-5 8 6 15 13 18 22l-1 1c-3-4-7-7-9-12-1-3-3-5-5-6Zm-103 36h3l-1 5-1 2 3-2 6 2v12c-5 1-10-2-14-5h2l-3-3h3l-2-2 1-2 2 1 2-5-1-3Zm-165 18 1-12 2 4 6 4 1 6 6-1 2 3c-6 11-16 20-22 31-3 6-4 13-6 19l1 5-2 2-5-1v3l-3-9c-2 0-6-1-8 2l1 9-4-9-1 3-3-3c-6-8-15-13-24-15-6 0-12 1-17 4-4 2-6 7-4 11l5 7c6 0 11-1 16 2-6 4-9 10-15 13-3 2-7 0-10-1-1 1-3 3-5 1l-9-9c-4-6-8-12-10-19l2-6 3-7c3-7 8-13 13-19l7-9c3-4 8 2 12-1l11-7 1 3 3 1 2 7c4 2 8 0 12-2l6 2c-2 3-7 4-7 8-1 5 4 10 9 9v2l-4 6c7 0 15-3 21-8 5-5 9-11 12-17 2-4 4-8 4-12m-101 47c-1 2 2 3 2 1 2-1-1-2-2-1m88 10c-1 1 0 4 1 2 2 0 1-3-1-2Zm131-61c4 2 7 6 10 10v-2l8 3c7 7 16 13 26 16-8-1-15 1-22 4 14 4 29 7 42 13l-1 2 3 2-2 1h-3l-2 2-2-1c-2 1-2 3-4 3l-5-2-3 2-27-7c-4-1-8-2-10-6-4-8-7-17-13-24l3-4 7 7c0-1 2-2 1-4s-3-3-3-5c0-3-1-7-3-10Zm-47 14 17 3c0 4 2 8 6 10 1 6 3 12 0 17-2 7-10 11-17 11-9 1-17 0-26 2-8 1-15 5-22 10l-10 12-5 8-2-7 1-10c5-10 11-20 22-25 5-3 10-3 16-4l1-1c5-1 10 0 15 1l-10-13 1-1v-4l3 6 5 1c1-4 1-9 4-12l1-4ZM237 536c2-1 4 0 6 1l2 5-8 1v-7Zm175 190c8-8 20-9 30-6l1 3v4c-7 3-14 3-22 3l-8-3-1-1Zm-126 1 3-1 11-1c4 0 7 3 10 6h-19c-2 0-3-2-5-4Zm84 9 1 1c1 2 4 3 6 4l-1 3c-9 4-22 5-30-2l8-3c5-3 10-1 16-3Z"/>
  <g fill="#841fcc">
    <path d="M432 315c5-4 10-7 16-8 5 2 11-2 17 1l-9 1h8l-3 2 3 1c-4-1-9 0-13 1l-19 8c-8 6-14 13-20 21l-2 3c-4-3-1-9 0-12l2 3c6-8 11-16 20-21Zm214 0c2 1 4 3 5 6 2 5 6 8 9 12 0 7 1 15-2 21-4 10-12 17-19 24l-17 15c-4 6-10 9-16 14l-18 19-16 15c-9-10-19-17-31-23l3-2 5 2c2 0 2-2 4-3l2 1 2-2h3l2-1-3-2 1-2 22 6-1-4c-1-4-3-9-3-14l9-6c9-3 19-3 29-7 8-3 15-9 21-16 6-6 9-13 11-21 3-11 0-22-2-32Zm-108 38 5-2 1 3-2 5-2-1-2-5Zm-261 63c1-1 4 0 2 1 0 2-3 1-2-1Zm74 9c2-3 6-2 8-2l3 9v-3l5 1h2v12c-5 14-12 29-25 38-9 4-19 6-27 11s-15 12-18 21c-1 6 1 14 7 17 9 4 19 8 29 9l1 2 6 1c-15 2-31-1-44-10a77 77 0 0 1-35-72c9 7 16 15 27 18 10 3 22 3 32-1 9-5 17-14 19-24 3-1 6-2 9-1 1-9-2-18-6-26l3 3 1-3 4 9-1-9Z"/>
    <path d="M365 426c2-1 3 2 1 2-1 2-2-1-1-2Zm131 29c11-5 24-5 36-3l18 8 5 6c2 2-1 2-2 3-12 6-21 16-27 28l-5 16-2-13c-3-13-11-24-23-29-1 9 4 17 2 26-1 7-4 14-10 19-6 3-12 6-19 6-13 0-26-4-38-1h-8c-3-5-3-11-8-15-1 3-1 8-3 11l-8 2c-7 10-8 27 2 36 6 1 11-2 15-5 2-2 4-5 7-6 7-2 15-6 22-2-3 2-7 4-9 8-3 4-1 10-4 15l-8 5c5 4 12 6 18 6 2 0 5 0 7 2-7 4-14 8-22 9 4 1 9-1 13-1 4-1 7-4 10-6h6l-1 3c-23 19-60 13-79-9-6-7-11-14-13-23l1-6 2 3c-1-12 2-25 8-36l6-9h1l6-3c1-2 2-5 0-6v-1l11-11c7-6 14-11 23-13l6-3 8-10 14 3c-4 5-7 11-8 17-1 8-1 16 1 24h15v-7l3-3c4-16 16-29 31-35m-71 40c0 2 0 5 2 5s4-1 4-3c0-4-4-3-6-2m-32 13v4h4v-4h-4m11 1c0 3 2 3 4 1-1-2-3-4-4-1Zm334 18c4-4 6-10 9-15l2 2-11 20c-9 11-22 18-36 21l-14 1c-5-2-10-4-16-3-8-2-14-8-20-13-5-4-11-5-16-5l-1-3c2-2 5-4 8-3 12 1 21 11 32 15 6 2 11 4 17 3 6 0 11 1 17-1 5-2 10-2 14-6 5-4 11-7 15-13Zm-501 7c4-2 10 1 9 6 1 6-9 7-11 2-1-3 0-6 2-8m0 2v7l8-1-2-5c-2-1-4-2-6-1Zm535 8c-1-3 3-6 6-4 2 1 2 4 1 6s-3 1-4 2c-1-1-3-2-3-4Zm-140 58c16 2 33-2 46-12l3 1a79 79 0 0 1-70 36c-11 0-22-3-32-8-8-4-13-10-19-16l-1-4c6 1 10 7 16 9l17 7c10 2 22 4 33 2l13-1h7l-18-4-11-5c-9-4-17-9-25-15 6-1 11 1 17 3 8 2 16 6 24 7Zm-151 10c7-1 15 0 22 2l13 13 9 10c5 5 10 10 13 15l15 23c4 10 11 19 16 28l6 11c3 4 5 9 9 13 2-7-3-13-4-20-2-6-5-13-5-20l19 39c1 2 3 4 2 6-1 3-4 5-6 7l-3-1 1 3c-3 2-7 3-10 6-1-4-5-7-6-12-10-17-20-35-32-51-5-9-12-16-18-25-2-4-4-8-8-11-3-3-4-7-8-8l-3-4-22-24Zm162 84c2-2 5-1 7-2l5 6 1 6c-3 3-6 5-10 4-7 0-8-10-3-14Zm-200 27c2 1 7 3 5 6-3 4-8 7-13 7-7 1-15 1-21-3l-1-6 8 3c8 0 15 0 22-3v-4Zm-160 8 3-4c2 2 3 4 5 4h19v1l1 1-11 3-13-1-4-4Zm60 11c7-6 18-8 27-6-6 2-11 0-16 3l-8 3c8 7 21 6 30 2l1-3 3 6-3-1v5l3-2c-1 4-6 5-9 6l-17 1-11-5c-2-3 1-7 1-9h-1Z"/>
  </g>
  <path fill="#351385" d="M516 312c3 0 3 4 3 6h-4l1-6Zm-159 14c7 3 11 10 14 17h-6l3 10c-3-2-4-5-4-8 0-2 0-5 2-5l-1-2h3c-2-2-4-3-5-6-1-2-5-3-6-6Zm359 136 8-7-1 4c-7 8-13 17-22 23-5 4-10 8-14 14l-2 4 7 8c5 3 10 1 15 0-3 6-10 5-16 4-3 0-5-2-8-3-4-3-5-8-7-12 0-4 4-5 6-7l22-17c5-3 8-8 12-11Zm-324 32c2 1 1 4 0 6l-6 3h-1l-1-1c4-2 6-5 8-8Zm1 14h4v4h-4v-4Zm264 3 3-3c4 4 7 9 12 12l12 6 7 3c-6 1-12-2-17-5-7-3-10-11-17-13Zm-252 39c0-4 0-8 3-11v11c1 2 4 1 6 2l5-4c-2 2-4 5-7 6s-7-1-7-4Zm49 28 5-2-4 4c-3 2-6 5-10 6-4 0-9 2-13 1 8-1 15-5 22-9Zm23 28 5-1c9 0 18 3 26 4 7 2 13 3 19 6 4 2 9 4 12 8l4 2c2 2 5 4 6 7 2 5 6 10 7 15 2 5 6 9 6 15l-1-2-6-7c-1-2-2-6-5-7-1 3-3 4-6 5l-16-20-10-11-15-6c-7-2-15-3-22-2l-4-6Z"/>
  <path fill="#ababc3" d="m587 493 3 3-6 6-1-1 2-4h-2l4-4ZM235 701c3 3 4 7 6 11-1 4 0 7-2 10-2-7-4-14-4-21Z"/>
</svg>
